<?xml version="1.0" encoding="iso-8859-1"?>
<!-- Uploaded to: SVG Repo, www.svgrepo.com, Generator: SVG Repo Mixer Tools -->
<!DOCTYPE svg PUBLIC "-//W3C//DTD SVG 1.1//EN" "http://www.w3.org/Graphics/SVG/1.1/DTD/svg11.dtd">
<svg fill="#000000" version="1.1" id="Capa_1" xmlns="http://www.w3.org/2000/svg" xmlns:xlink="http://www.w3.org/1999/xlink" 
	 width="800px" height="800px" viewBox="0 0 108.364 108.364"
	 xml:space="preserve">
<g>
	<g>
		<path d="M54.182,0C24.258,0,0,24.258,0,54.182c0,29.924,24.258,54.183,54.182,54.183c29.923,0,54.182-24.259,54.182-54.183
			C108.364,24.258,84.105,0,54.182,0z M68.713,34.122c4.797,0,8.701,3.903,8.701,8.701c0,1.381-1.119,2.5-2.5,2.5
			s-2.5-1.119-2.5-2.5c0-2.041-1.66-3.701-3.701-3.701c-2.042,0-3.703,1.66-3.703,3.701c0,1.381-1.119,2.5-2.5,2.5
			s-2.5-1.119-2.5-2.5C60.01,38.025,63.914,34.122,68.713,34.122z M40.991,34.096c4.797,0,8.701,3.903,8.701,8.701
			c0,1.381-1.119,2.5-2.5,2.5c-1.381,0-2.5-1.119-2.5-2.5c0-2.041-1.66-3.701-3.701-3.701c-2.042,0-3.703,1.66-3.703,3.701
			c0,1.381-1.119,2.5-2.5,2.5s-2.5-1.119-2.5-2.5C32.287,37.999,36.192,34.096,40.991,34.096z M77.17,65.221
			C73.327,74.107,64.327,79.85,54.242,79.85c-10.301,0-19.354-5.771-23.064-14.703c-0.636-1.529,0.089-3.285,1.62-3.92
			c0.376-0.156,0.766-0.23,1.15-0.23c1.176,0,2.292,0.695,2.771,1.85c2.777,6.686,9.655,11.004,17.523,11.004
			c7.689,0,14.527-4.321,17.421-11.01c0.658-1.521,2.424-2.223,3.944-1.564S77.828,63.7,77.17,65.221z"/>
	</g>
</g>
</svg>