<svg width="40" height="40" viewBox="0 0 40 40" fill="none" xmlns="http://www.w3.org/2000/svg">
<path d="M25.3438 10.4375C24.8469 10.4375 24.3875 10.3531 23.9375 10.2125V6.21875C23.9375 3.89375 22.0437 2 19.7188 2H14.0938C11.7688 2 9.875 3.89375 9.875 6.21875V10.2125C9.425 10.3531 8.96563 10.4375 8.46875 10.4375C7.69062 10.4375 7.0625 11.0656 7.0625 11.8438C7.0625 12.6219 7.69062 13.25 8.46875 13.25C8.96563 13.25 9.43438 13.2031 9.875 13.1094V16.9062C9.875 20.7875 13.025 23.9375 16.9062 23.9375C20.7875 23.9375 23.9375 20.7875 23.9375 16.9062V13.1094C24.3781 13.1937 24.8469 13.25 25.3438 13.25C26.1219 13.25 26.75 12.6219 26.75 11.8438C26.75 11.0656 26.1219 10.4375 25.3438 10.4375ZM14.0938 4.8125H19.7188C20.4969 4.8125 21.125 5.44062 21.125 6.21875V8.84375C19.9344 8.21563 18.5844 7.625 16.9062 7.625C15.2281 7.625 13.8781 8.21563 12.6875 8.84375V6.21875C12.6875 5.44062 13.3156 4.8125 14.0938 4.8125ZM21.125 16.9062C21.125 19.2312 19.2312 21.125 16.9062 21.125C14.5813 21.125 12.6875 19.2312 12.6875 16.9062V12.0312C12.9219 11.9094 13.1469 11.7875 13.3625 11.6656C14.5719 11.0094 15.6219 10.4375 16.9062 10.4375C18.1906 10.4375 19.2406 11.0094 20.45 11.675C20.6656 11.7969 20.8906 11.9187 21.125 12.0406V16.9062Z" fill="#535353"/>
<path d="M2 30.9688V33.7812C2 36.1062 3.89375 38 6.21875 38H20.1969C20.975 38 21.6031 37.3719 21.6031 36.5938C21.6031 35.8156 20.975 35.1875 20.1969 35.1875H10.4375V33.7812C10.4375 33.0031 9.80937 32.375 9.03125 32.375C8.25312 32.375 7.625 33.0031 7.625 33.7812V35.1875H6.21875C5.44062 35.1875 4.8125 34.5594 4.8125 33.7812V30.9688C4.8125 28.6438 6.70625 26.75 9.03125 26.75H20.1969C20.975 26.75 21.6031 26.1219 21.6031 25.3438C21.6031 24.5656 20.975 23.9375 20.1969 23.9375H9.03125C5.15 23.9375 2 27.0875 2 30.9688Z" fill="#535353"/>
<path d="M33.7812 23.9375H28.1562C25.8313 23.9375 23.9375 25.8313 23.9375 28.1562V33.7812C23.9375 36.1062 25.8313 38 28.1562 38H33.7812C36.1062 38 38 36.1062 38 33.7812V28.1562C38 25.8313 36.1062 23.9375 33.7812 23.9375ZM35.1875 33.7812C35.1875 34.5594 34.5594 35.1875 33.7812 35.1875H28.1562C27.3781 35.1875 26.75 34.5594 26.75 33.7812V28.1562C26.75 27.3781 27.3781 26.75 28.1562 26.75H29.5625V28.1562C29.5625 28.9344 30.1906 29.5625 30.9688 29.5625C31.7469 29.5625 32.375 28.9344 32.375 28.1562V26.75H33.7812C34.5594 26.75 35.1875 27.3781 35.1875 28.1562V33.7812Z" fill="#535353"/>
</svg>
