<svg width="249" height="42" viewBox="0 0 249 42" fill="none" xmlns="http://www.w3.org/2000/svg">
<path d="M98.0289 32.5282H94.3958V30.6588H103.541V32.5282H99.9081V41.7507H97.9036V32.5282H98.0289ZM112.562 41.7507H105.922V30.6588H112.311V32.5282H107.801V35.27H111.81V37.1395H107.801V40.0059H112.436V41.7507H112.562ZM122.208 30.6588H124.463L120.705 36.0178L124.589 41.6261H122.333L119.452 37.5134L116.571 41.6261H114.315L118.199 36.0178L114.441 30.6588H116.696L119.452 34.6469L122.208 30.6588ZM135.989 41.7507H133.985V37.0148H128.973V41.7507H126.969V30.6588H128.973V35.1454H134.11V30.6588H135.989V41.7507ZM138.871 36.2671C138.871 34.6469 139.372 33.276 140.499 32.1543C141.627 31.0326 143.005 30.5341 144.634 30.5341C146.262 30.5341 147.64 31.0326 148.768 32.1543C149.895 33.276 150.397 34.6469 150.397 36.2671C150.397 37.8872 149.895 39.2582 148.768 40.3798C147.64 41.5015 146.262 42 144.634 42C143.005 42 141.627 41.5015 140.499 40.3798C139.372 39.2582 138.871 37.8872 138.871 36.2671ZM140.875 36.2671C140.875 37.3887 141.251 38.2611 141.877 39.0089C142.504 39.7567 143.506 40.1306 144.508 40.1306C145.636 40.1306 146.513 39.7567 147.264 39.0089C147.891 38.2611 148.267 37.3887 148.267 36.2671C148.267 35.1454 147.891 34.1484 147.139 33.5252C146.388 32.7774 145.511 32.4036 144.508 32.4036C143.381 32.4036 142.504 32.7774 141.877 33.5252C141.251 34.1484 140.875 35.1454 140.875 36.2671ZM161.421 41.7507H159.542V32.5282H156.285L156.034 34.6469C155.909 35.8932 155.784 37.0148 155.533 37.8872C155.282 38.7596 155.157 39.5074 154.907 40.0059C154.656 40.5045 154.406 41.003 154.03 41.2522C153.654 41.5015 153.403 41.7507 153.027 41.7507C152.652 41.8754 152.276 41.8754 151.775 41.7507V39.8813C152.025 39.8813 152.15 39.8813 152.401 39.8813C152.526 39.8813 152.777 39.632 152.902 39.3828C153.153 39.1335 153.278 38.7596 153.403 38.2611C153.779 37.1395 154.03 35.3947 154.28 32.9021L154.406 30.6588H161.421V41.7507ZM164.303 36.2671C164.303 34.6469 164.804 33.276 165.931 32.1543C167.059 31.0326 168.437 30.5341 170.066 30.5341C171.694 30.5341 173.072 31.0326 174.2 32.1543C175.328 33.276 175.829 34.6469 175.829 36.2671C175.829 37.8872 175.328 39.2582 174.2 40.3798C173.072 41.5015 171.694 42 170.066 42C168.437 42 167.059 41.5015 165.931 40.3798C164.804 39.2582 164.303 37.8872 164.303 36.2671ZM166.433 36.2671C166.433 37.3887 166.808 38.2611 167.435 39.0089C168.061 39.7567 169.063 40.1306 170.066 40.1306C171.193 40.1306 172.07 39.7567 172.822 39.0089C173.448 38.2611 173.824 37.3887 173.824 36.2671C173.824 35.1454 173.448 34.1484 172.697 33.5252C171.945 32.7774 171.068 32.4036 170.066 32.4036C168.938 32.4036 168.061 32.7774 167.435 33.5252C166.683 34.1484 166.433 35.1454 166.433 36.2671ZM180.715 41.7507H178.71V30.6588H184.974V32.5282H180.715V41.7507ZM189.61 41.7507H187.605V30.6588H189.61V41.7507ZM192.491 28.7893C192.491 28.5401 192.616 28.2908 192.742 28.0415C192.992 27.9169 193.243 27.7923 193.493 27.7923C193.744 27.7923 193.994 27.9169 194.245 28.0415C194.496 28.1662 194.496 28.4154 194.496 28.7893C194.496 29.1632 194.37 29.4125 194.245 29.5371C194.12 29.6617 193.869 29.7863 193.493 29.7863C193.243 29.7863 192.992 29.6617 192.742 29.5371C192.616 29.2878 192.491 29.0386 192.491 28.7893ZM195.748 41.7507H193.744V30.6588H195.748V41.7507ZM195.122 28.7893C195.122 28.5401 195.247 28.2908 195.373 28.0415C195.623 27.9169 195.874 27.7923 196.124 27.7923C196.375 27.7923 196.625 27.9169 196.876 28.0415C197.126 28.2908 197.126 28.4154 197.126 28.7893C197.126 29.1632 197.001 29.4125 196.876 29.5371C196.751 29.7863 196.5 29.7863 196.124 29.7863C195.748 29.7863 195.498 29.6617 195.373 29.5371C195.247 29.2878 195.122 29.0386 195.122 28.7893ZM211.409 39.2582L212.16 40.7537C211.784 41.1276 211.283 41.3769 210.657 41.6261C210.03 41.8754 209.279 42 208.652 42C206.898 42 205.52 41.5015 204.518 40.3798C203.516 39.3828 202.889 38.0119 202.889 36.2671C202.889 34.6469 203.391 33.276 204.393 32.1543C205.395 31.0326 206.773 30.5341 208.527 30.5341C209.905 30.5341 211.033 30.908 211.91 31.6558L211.033 33.1513C210.281 32.6528 209.404 32.4036 208.527 32.4036C207.525 32.4036 206.648 32.7774 205.896 33.4006C205.27 34.1484 204.894 35.0208 204.894 36.2671C204.894 37.3887 205.27 38.3858 205.896 39.1335C206.648 39.8813 207.525 40.2552 208.652 40.2552C209.78 40.1306 210.657 39.8813 211.409 39.2582ZM223.686 41.7507H221.807V37.0148H216.67V41.7507H214.666V30.6588H216.67V35.1454H221.807V30.6588H223.686V41.7507ZM234.586 30.6588H236.59L232.832 39.1335C232.456 40.0059 231.955 40.6291 231.579 41.1276C231.078 41.5015 230.577 41.7507 229.825 41.7507C229.073 41.7507 228.697 41.6261 228.322 41.2522L228.948 39.632C229.198 39.7567 229.449 39.8813 229.825 39.8813C230.326 39.8813 230.702 39.632 230.952 39.1335L231.078 38.7596L226.192 30.6588H228.447L232.08 36.8902L234.586 30.6588Z" fill="#535353"/>
<path d="M92.1478 11.7151L102.922 24.8012H96.0315L87.3871 13.9585V24.8012H82V0.249263H87.3871V10.2196L95.6557 0.249263H102.296L92.1478 11.7151ZM202.02 5.35906H209.536V24.8012H214.923V5.35906H222.44V0.249263H201.894V5.35906H202.02ZM118.457 14.9555L126.099 24.8012H119.584L113.195 16.0772H111.191V24.8012H105.803V0.249263H106.43C107.557 0.249263 108.81 0.249263 110.188 0.249263C111.566 0.249263 112.694 0.249263 113.571 0.249263C121.088 0.249263 122.716 4.48665 122.716 8.1009C122.716 9.97033 122.215 11.5905 121.213 12.8368C120.336 13.7092 119.459 14.457 118.457 14.9555ZM111.817 5.35906C111.566 5.35906 111.441 5.35906 111.191 5.35906V10.9674H113.195C114.323 10.9674 115.325 10.7181 116.077 10.095C116.703 9.59645 117.079 8.84867 117.079 7.97627C117.079 6.72998 116.703 5.23443 113.32 5.23443C113.195 5.23443 113.07 5.23443 112.819 5.23443C112.569 5.35906 112.193 5.35906 111.817 5.35906ZM193.375 0.249263L203.773 24.8012H198.011L195.63 18.819H186.485L184.104 24.8012H178.592L188.865 0.249263H193.375ZM190.995 7.72701L188.489 13.7092H193.5L190.995 7.72701ZM249 12.5875C249 16.2018 247.747 19.3175 245.367 21.6855C242.987 24.0534 239.854 25.2997 236.221 25.2997C232.588 25.2997 229.456 24.178 227.076 21.8101C224.695 19.4421 223.443 16.451 223.443 12.7122C223.443 9.22256 224.695 6.10683 227.076 3.73888C229.456 1.37092 232.588 0.124634 236.221 0.124634C239.854 0.124634 242.987 1.2463 245.367 3.61425C247.747 5.73294 249 8.84867 249 12.5875ZM241.483 17.9466C242.861 16.451 243.488 14.7062 243.488 12.4629C243.488 10.2196 242.861 8.47478 241.358 6.97923C239.98 5.60831 238.226 4.86054 236.221 4.86054C234.092 4.86054 232.463 5.60831 231.085 6.97923C229.707 8.35015 229.08 10.2196 229.08 12.4629C229.08 14.7062 229.707 16.451 231.085 17.822C232.463 19.3175 234.092 19.9407 236.221 19.9407C238.476 20.0653 240.105 19.4421 241.483 17.9466ZM175.585 0.249263L169.321 16.451L162.806 0.249263H157.044L167.191 24.8012H171.2L181.098 0.249263H175.585Z" fill="#535353"/>
<path d="M152.605 2.49432C151.098 0.997728 149.088 0.124716 146.953 0.124716C144.818 0.124716 142.809 0.997728 141.302 2.49432L140.925 2.86847L140.422 2.3696C138.915 0.873012 136.906 0 134.771 0C132.636 0 130.626 0.873012 129.119 2.3696C127.612 3.8662 126.733 5.86165 126.733 7.98182C126.733 10.102 127.612 12.0975 129.119 13.594L140.046 24.4443C140.297 24.6938 140.548 24.8185 140.925 24.8185C141.302 24.8185 141.553 24.6938 141.804 24.4443L152.731 13.594C154.238 12.0975 155.117 10.102 155.117 7.98182C155.117 5.86165 154.238 3.99091 152.605 2.49432Z" fill="#00B5FF"/>
<mask id="mask0_42_167" style="mask-type:alpha" maskUnits="userSpaceOnUse" x="126" y="0" width="30" height="25">
<path d="M152.605 2.49432C151.098 0.997728 149.088 0.124716 146.953 0.124716C144.818 0.124716 142.809 0.997728 141.302 2.49432L140.925 2.86847L140.422 2.3696C138.915 0.873012 136.906 0 134.771 0C132.636 0 130.626 0.873012 129.119 2.3696C127.612 3.8662 126.733 5.86165 126.733 7.98182C126.733 10.102 127.612 12.0975 129.119 13.594L140.046 24.4443C140.297 24.6938 140.548 24.8185 140.925 24.8185C141.302 24.8185 141.553 24.6938 141.804 24.4443L152.731 13.594C154.238 12.0975 155.117 10.102 155.117 7.98182C155.117 5.86165 154.238 3.99091 152.605 2.49432Z" fill="#00B5FF"/>
</mask>
<g mask="url(#mask0_42_167)">
<rect x="125.797" y="10.3227" width="30.0675" height="15.0844" fill="#FFBC00"/>
</g>
<path d="M7.23477 14.4V40.8C7.23477 41.52 6.75246 42 6.02898 42H1.2058C0.482318 42 0 41.52 0 40.8V14.4C0 13.68 0.482318 13.2 1.2058 13.2H6.02898C6.75246 13.2 7.23477 13.8 7.23477 14.4ZM72.7942 13.2H67.971C67.2476 13.2 66.7652 13.68 66.7652 14.4V40.8C66.7652 41.52 67.2476 42 67.971 42H72.7942C73.5177 42 74 41.52 74 40.8V14.4C74 13.8 73.5177 13.2 72.7942 13.2Z" fill="#FFBC57"/>
<path d="M64.3536 21.6V28.8C64.3536 29.52 63.8713 30 63.1479 30H10.8522C10.1287 30 9.64636 29.52 9.64636 28.8V21.6C9.64636 20.88 10.1287 20.4 10.8522 20.4H63.1479C63.8713 20.4 64.3536 20.88 64.3536 21.6ZM10.8522 18H25.0686C25.7921 18 26.2744 17.52 26.2744 16.8V1.2C26.2744 0.48 25.7921 0 25.0686 0H10.8522C10.1287 0 9.64636 0.48 9.64636 1.2V16.8C9.64636 17.52 10.1287 18 10.8522 18ZM29.8918 18H44.1082C44.8317 18 45.314 17.52 45.314 16.8V1.2C45.314 0.48 44.8317 0 44.1082 0H29.8918C29.1683 0 28.686 0.48 28.686 1.2V16.8C28.686 17.52 29.1683 18 29.8918 18ZM63.1479 0H48.9314C48.2079 0 47.7256 0.48 47.7256 1.2V16.8C47.7256 17.52 48.2079 18 48.9314 18H63.1479C63.8713 18 64.3536 17.52 64.3536 16.8V1.2C64.3536 0.48 63.8713 0 63.1479 0ZM63.1479 32.4H10.8522C10.1287 32.4 9.64636 32.88 9.64636 33.6V40.8C9.64636 41.52 10.1287 42 10.8522 42H17.8338C18.5573 42 19.0396 41.52 19.0396 40.8V39.6H54.9604V40.8C54.9604 41.52 55.4427 42 56.1662 42H63.1479C63.8713 42 64.3536 41.52 64.3536 40.8V33.6C64.3536 32.88 63.8713 32.4 63.1479 32.4Z" fill="#FFBC57"/>
</svg>
