<svg xmlns="http://www.w3.org/2000/svg" viewBox="0 0 39.273 24.274"><defs><style>.cls-1{fill:#7673c0;}.cls-2{fill:#eb001b;}.cls-3{fill:#00a1df;}</style></defs><g id="Calque_2" data-name="Calque 2"><g id="Texte"><path class="cls-1" d="M21.679,4.639A12.114,12.114,0,0,0,19.636,2.6a12.138,12.138,0,0,0,0,19.084A12.136,12.136,0,0,0,21.679,4.639Z"/><path class="cls-2" d="M15,12.14A12.117,12.117,0,0,1,19.636,2.6a12.136,12.136,0,1,0,0,19.084A12.116,12.116,0,0,1,15,12.14Z"/><path class="cls-3" d="M19.636,2.6a12.136,12.136,0,0,1,0,19.084,12.136,12.136,0,0,0,19.633-9.54l0,0A12.137,12.137,0,0,0,19.636,2.6Z"/></g></g></svg>