<svg width="24" height="23" viewBox="0 0 24 23" fill="none" xmlns="http://www.w3.org/2000/svg">
<path d="M20.5918 12.6961C20.3379 12.6961 20.0724 12.6153 19.8185 12.5576C19.3047 12.4427 18.7995 12.2923 18.3065 12.1074C17.7711 11.9126 17.1825 11.9228 16.6541 12.1358C16.1256 12.3489 15.6947 12.7499 15.4441 13.2616L15.1902 13.7925C14.0693 13.1568 13.0337 12.3811 12.1085 11.4842C11.2115 10.5589 10.4359 9.52341 9.80013 8.40248L10.3311 8.16011C10.8428 7.90955 11.2438 7.47859 11.4568 6.95016C11.6699 6.42173 11.68 5.83316 11.4852 5.29772C11.3019 4.8003 11.1516 4.29136 11.0351 3.77419C10.9774 3.52027 10.9312 3.25481 10.8966 3.00089C10.7564 2.1879 10.3306 1.45167 9.69582 0.92478C9.06101 0.397891 8.25894 0.114967 7.43405 0.126961H3.95994C3.47201 0.126321 2.98944 0.228815 2.54389 0.427723C2.09834 0.626631 1.69985 0.917461 1.37456 1.28115C1.04253 1.65471 0.795294 2.09572 0.649853 2.57388C0.504411 3.05204 0.464208 3.55603 0.532006 4.0512C1.15941 8.85509 3.35424 13.3178 6.77616 16.7473C10.2057 20.1692 14.6683 22.364 19.4722 22.9914C19.622 23.0029 19.7725 23.0029 19.9224 22.9914C20.7735 22.9927 21.5952 22.6804 22.2307 22.1142C22.5944 21.7889 22.8852 21.3905 23.0842 20.9449C23.2831 20.4994 23.3856 20.0168 23.3849 19.5289V16.0663C23.3787 15.2688 23.0974 14.4979 22.5885 13.8838C22.0795 13.2698 21.3743 12.8502 20.5918 12.6961ZM21.1573 19.6212C21.157 19.7822 21.1229 19.9414 21.0573 20.0885C20.9917 20.2356 20.896 20.3674 20.7765 20.4753C20.65 20.5905 20.4994 20.6762 20.3357 20.7261C20.172 20.776 19.9993 20.7889 19.83 20.7638C15.5229 20.2013 11.5202 18.2385 8.43819 15.1776C5.35359 12.093 3.37365 8.07627 2.80576 3.75111C2.78068 3.58183 2.79356 3.40909 2.84347 3.2454C2.89337 3.08172 2.97905 2.93117 3.0943 2.80468C3.20351 2.68366 3.33712 2.58715 3.48632 2.5215C3.63552 2.45585 3.79694 2.42255 3.95994 2.42379H7.42251C7.68931 2.41727 7.95013 2.50342 8.16057 2.66756C8.37101 2.8317 8.51806 3.0637 8.57669 3.32406C8.57669 3.63569 8.68057 3.95886 8.74982 4.27049C8.88322 4.87513 9.06067 5.4692 9.28075 6.04794L7.66489 6.80971C7.38715 6.9372 7.17131 7.16964 7.06471 7.45605C6.94927 7.73705 6.94927 8.05223 7.06471 8.33323C8.72581 11.8913 11.5859 14.7514 15.144 16.4125C15.425 16.528 15.7402 16.528 16.0212 16.4125C16.3076 16.3059 16.5401 16.0901 16.6675 15.8124L17.3947 14.1965C17.9901 14.4136 18.5993 14.591 19.2183 14.7274C19.5184 14.7967 19.8416 14.8544 20.1532 14.9006C20.4136 14.9592 20.6456 15.1062 20.8097 15.3167C20.9738 15.5271 21.06 15.7879 21.0535 16.0547L21.1573 19.6212ZM14.3476 0C14.0822 0 13.8052 0 13.5397 0C13.2336 0.0260193 12.9504 0.172575 12.7523 0.407425C12.5542 0.642276 12.4576 0.946184 12.4836 1.25229C12.5096 1.5584 12.6562 1.84164 12.891 2.03969C13.1259 2.23775 13.4298 2.33439 13.7359 2.30838H14.3476C16.1843 2.30838 17.9457 3.03798 19.2444 4.3367C20.5431 5.63541 21.2728 7.39684 21.2728 9.2335C21.2728 9.44125 21.2728 9.63747 21.2728 9.84522C21.2472 10.1497 21.3434 10.4519 21.5402 10.6856C21.7371 10.9193 22.0187 11.0653 22.3231 11.0917H22.4154C22.7043 11.0929 22.9832 10.9857 23.1969 10.7912C23.4106 10.5967 23.5436 10.3292 23.5696 10.0414C23.5696 9.77597 23.5696 9.49896 23.5696 9.2335C23.5696 6.78662 22.5984 4.43979 20.8692 2.70851C19.1401 0.977221 16.7945 0.0030586 14.3476 0ZM16.656 9.2335C16.656 9.53961 16.7776 9.83318 16.9941 10.0496C17.2105 10.2661 17.5041 10.3877 17.8102 10.3877C18.1163 10.3877 18.4099 10.2661 18.6263 10.0496C18.8428 9.83318 18.9644 9.53961 18.9644 9.2335C18.9644 8.00906 18.478 6.83477 17.6122 5.96897C16.7464 5.10316 15.5721 4.61675 14.3476 4.61675C14.0415 4.61675 13.7479 4.73835 13.5315 4.9548C13.315 5.17126 13.1934 5.46483 13.1934 5.77094C13.1934 6.07705 13.315 6.37062 13.5315 6.58707C13.7479 6.80352 14.0415 6.92513 14.3476 6.92513C14.9598 6.92513 15.547 7.16833 15.9799 7.60123C16.4128 8.03414 16.656 8.62128 16.656 9.2335Z" fill="#535353"/>
</svg>
